<svg width="68" height="42" viewBox="0 0 68 42" fill="none" xmlns="http://www.w3.org/2000/svg">
<path d="M2 34V38.7936C2 39.68 2.72 40.4 3.6064 40.4H6.7968C7.22229 40.3992 7.63006 40.2295 7.93063 39.9284C8.23119 39.6272 8.4 39.2191 8.4 38.7936V34C8.4 30.9312 10.9632 26.7264 14.8 25.1072V18.3712C7.3888 20.0864 2 27.504 2 34ZM40.608 4.2432L32.512 10.3168C31.4016 11.1488 30.0512 11.6 28.6624 11.6H21.216C19.44 11.6 18 13.04 18 14.816V27.5872C18 29.36 19.44 30.8 21.216 30.8H28.6624C30.0512 30.8 31.4016 31.2512 32.512 32.0832L40.6112 38.1568C42.5514 39.6128 44.9118 40.4 47.3376 40.4H53.2V2H47.3376C44.912 2 42.5504 2.7872 40.608 4.2432ZM56.4 8.4V14.8H66V8.4H56.4ZM56.4 34H66V27.6H56.4V34Z" fill="#C9904D" stroke="#C9904D" stroke-width="3.2"/>
</svg>
