<svg width="64" height="64" viewBox="0 0 64 64" fill="none" xmlns="http://www.w3.org/2000/svg">
<rect x="20" y="8" width="34" height="56" fill="white"/>
<path d="M55.3752 0H8.62413C3.86125 0 0 3.86109 0 8.62413V55.3756C0 60.1386 3.86109 63.9997 8.62413 63.9997H31.6816L31.7209 41.1297H25.7792C25.0071 41.1297 24.3804 40.5053 24.3774 39.7331L24.3489 32.3612C24.3459 31.5848 24.9745 30.9539 25.7509 30.9539H31.6817V23.8307C31.6817 15.5643 36.7303 11.0632 44.1045 11.0632H50.1555C50.9297 11.0632 51.5575 11.6908 51.5575 12.4652V18.6813C51.5575 19.4553 50.9302 20.0828 50.1563 20.0833L46.4428 20.085C42.4326 20.085 41.656 21.9906 41.656 24.7873V30.954H50.468C51.3076 30.954 51.9591 31.6872 51.8601 32.521L50.9864 39.893C50.9028 40.5985 50.3046 41.13 49.5942 41.13H41.6953L41.656 64H55.3756C60.1384 64 63.9995 60.1389 63.9995 55.376V8.62413C63.9994 3.86109 60.1383 0 55.3752 0Z" fill="#475993"/>
</svg>
