<svg width="275" height="158" viewBox="0 0 275 158" fill="none" xmlns="http://www.w3.org/2000/svg">
<path d="M176 0L140 57L154 83.7647L155.431 86.5L157 89.5L176 63L237 157.5H275L176 0Z" fill="#5D7397"/>
<path d="M275 157.5L176 0V53L154 83.7648L155.431 86.5L157 89.5L176 63L237 157.5H275Z" fill="#46597A"/>
<path d="M95.5 0L0 157H39.5L95.5 61.5L145.5 157H180L95.5 0Z" fill="#E3A65E"/>
<path d="M180 157L95.5 0V61.5L145.5 157H180Z" fill="#C9904D"/>
<path d="M39.5 157.5L95.5 62V56.5V49.5L33.1297 153.5L31 157.5H39.5Z" fill="#C9904D"/>
</svg>
