<svg width="704" height="159" viewBox="0 0 704 159" fill="none" xmlns="http://www.w3.org/2000/svg">
<path d="M96.6398 22L76.8726 53.2982L84.5598 67.9944L85.3455 69.4964L86.2071 71.1436L96.6398 56.5927L130.134 108.482H151L96.6398 22Z" fill="#5D7397"/>
<path d="M151 108.482L96.6401 22V51.1018L84.56 67.9945L85.3457 69.4964L86.2073 71.1437L96.6401 56.5928L130.135 108.482H151Z" fill="#46597A"/>
<path d="M52.4382 22L0 108.207H21.6891L52.4382 55.7691L79.8927 108.207H98.8364L52.4382 22Z" fill="#E3A65E"/>
<path d="M98.8362 108.207L52.438 22V55.7691L79.8925 108.207H98.8362Z" fill="#C9904D"/>
<path d="M21.6888 108.482L52.4379 56.0436V53.0236V49.18L18.1909 106.285L17.0215 108.482H21.6888Z" fill="#C9904D"/>
<path d="M181.144 108.864C176.152 108.864 171.64 107.744 167.608 105.504C163.576 103.2 160.408 100 158.104 95.904C155.8 91.744 154.648 86.944 154.648 81.504C154.648 76.128 155.832 71.36 158.2 67.2C160.568 63.04 163.8 59.84 167.896 57.6C171.992 55.36 176.568 54.24 181.624 54.24C186.68 54.24 191.256 55.36 195.352 57.6C199.448 59.84 202.68 63.04 205.048 67.2C207.416 71.36 208.6 76.128 208.6 81.504C208.6 86.88 207.384 91.648 204.952 95.808C202.52 99.968 199.192 103.2 194.968 105.504C190.808 107.744 186.2 108.864 181.144 108.864ZM181.144 99.36C183.96 99.36 186.584 98.688 189.016 97.344C191.512 96 193.528 93.984 195.064 91.296C196.6 88.608 197.368 85.344 197.368 81.504C197.368 77.664 196.632 74.432 195.16 71.808C193.688 69.12 191.736 67.104 189.304 65.76C186.872 64.416 184.248 63.744 181.432 63.744C178.616 63.744 175.992 64.416 173.56 65.76C171.192 67.104 169.304 69.12 167.896 71.808C166.488 74.432 165.784 77.664 165.784 81.504C165.784 87.2 167.224 91.616 170.104 94.752C173.048 97.824 176.728 99.36 181.144 99.36ZM246.107 54.24C250.267 54.24 253.979 55.104 257.243 56.832C260.571 58.56 263.163 61.12 265.019 64.512C266.875 67.904 267.803 72 267.803 76.8V108H256.955V78.432C256.955 73.696 255.771 70.08 253.403 67.584C251.035 65.024 247.803 63.744 243.707 63.744C239.611 63.744 236.347 65.024 233.915 67.584C231.547 70.08 230.363 73.696 230.363 78.432V108H219.419V55.104H230.363V61.152C232.155 58.976 234.427 57.28 237.179 56.064C239.995 54.848 242.971 54.24 246.107 54.24ZM294.531 64.032V93.312C294.531 95.296 294.979 96.736 295.875 97.632C296.835 98.464 298.435 98.88 300.675 98.88H307.395V108H298.755C293.827 108 290.051 106.848 287.427 104.544C284.803 102.24 283.491 98.496 283.491 93.312V64.032H277.251V55.104H283.491V41.952H294.531V55.104H307.395V64.032H294.531ZM365.961 80.256C365.961 82.24 365.833 84.032 365.577 85.632H325.161C325.481 89.856 327.049 93.248 329.865 95.808C332.681 98.368 336.137 99.648 340.233 99.648C346.121 99.648 350.281 97.184 352.713 92.256H364.521C362.921 97.12 360.009 101.12 355.785 104.256C351.625 107.328 346.441 108.864 340.233 108.864C335.177 108.864 330.633 107.744 326.601 105.504C322.633 103.2 319.497 100 317.193 95.904C314.953 91.744 313.833 86.944 313.833 81.504C313.833 76.064 314.921 71.296 317.097 67.2C319.337 63.04 322.441 59.84 326.409 57.6C330.441 55.36 335.049 54.24 340.233 54.24C345.225 54.24 349.673 55.328 353.577 57.504C357.481 59.68 360.521 62.752 362.697 66.72C364.873 70.624 365.961 75.136 365.961 80.256ZM354.537 76.8C354.473 72.768 353.033 69.536 350.217 67.104C347.401 64.672 343.913 63.456 339.753 63.456C335.977 63.456 332.745 64.672 330.057 67.104C327.369 69.472 325.769 72.704 325.257 76.8H354.537Z" fill="#C9904D"/>
<path d="M418.184 108.672C413.704 108.672 409.672 107.904 406.088 106.368C402.504 104.768 399.688 102.528 397.64 99.648C395.592 96.768 394.568 93.408 394.568 89.568H406.28C406.536 92.448 407.656 94.816 409.64 96.672C411.688 98.528 414.536 99.456 418.184 99.456C421.96 99.456 424.904 98.56 427.016 96.768C429.128 94.912 430.184 92.544 430.184 89.664C430.184 87.424 429.512 85.6 428.168 84.192C426.888 82.784 425.256 81.696 423.272 80.928C421.352 80.16 418.664 79.328 415.208 78.432C410.856 77.28 407.304 76.128 404.552 74.976C401.864 73.76 399.56 71.904 397.64 69.408C395.72 66.912 394.76 63.584 394.76 59.424C394.76 55.584 395.72 52.224 397.64 49.344C399.56 46.464 402.248 44.256 405.704 42.72C409.16 41.184 413.16 40.416 417.704 40.416C424.168 40.416 429.448 42.048 433.544 45.312C437.704 48.512 440.008 52.928 440.456 58.56H428.36C428.168 56.128 427.016 54.048 424.904 52.32C422.792 50.592 420.008 49.728 416.552 49.728C413.416 49.728 410.856 50.528 408.872 52.128C406.888 53.728 405.896 56.032 405.896 59.04C405.896 61.088 406.504 62.784 407.72 64.128C409 65.408 410.6 66.432 412.52 67.2C414.44 67.968 417.064 68.8 420.392 69.696C424.808 70.912 428.392 72.128 431.144 73.344C433.96 74.56 436.328 76.448 438.248 79.008C440.232 81.504 441.224 84.864 441.224 89.088C441.224 92.48 440.296 95.68 438.44 98.688C436.648 101.696 433.992 104.128 430.472 105.984C427.016 107.776 422.92 108.672 418.184 108.672ZM459.706 48.096C457.722 48.096 456.058 47.424 454.714 46.08C453.37 44.736 452.698 43.072 452.698 41.088C452.698 39.104 453.37 37.44 454.714 36.096C456.058 34.752 457.722 34.08 459.706 34.08C461.626 34.08 463.258 34.752 464.602 36.096C465.946 37.44 466.618 39.104 466.618 41.088C466.618 43.072 465.946 44.736 464.602 46.08C463.258 47.424 461.626 48.096 459.706 48.096ZM465.082 55.104V108H454.138V55.104H465.082ZM506.138 54.24C510.298 54.24 514.01 55.104 517.274 56.832C520.602 58.56 523.194 61.12 525.05 64.512C526.906 67.904 527.834 72 527.834 76.8V108H516.986V78.432C516.986 73.696 515.802 70.08 513.434 67.584C511.066 65.024 507.834 63.744 503.738 63.744C499.642 63.744 496.378 65.024 493.946 67.584C491.578 70.08 490.394 73.696 490.394 78.432V108H479.45V55.104H490.394V61.152C492.186 58.976 494.458 57.28 497.21 56.064C500.026 54.848 503.002 54.24 506.138 54.24ZM538.146 81.312C538.146 76 539.234 71.296 541.41 67.2C543.65 63.104 546.658 59.936 550.434 57.696C554.274 55.392 558.498 54.24 563.106 54.24C567.266 54.24 570.882 55.072 573.954 56.736C577.09 58.336 579.586 60.352 581.442 62.784V55.104H592.482V108H581.442V100.128C579.586 102.624 577.058 104.704 573.858 106.368C570.658 108.032 567.01 108.864 562.914 108.864C558.37 108.864 554.21 107.712 550.434 105.408C546.658 103.04 543.65 99.776 541.41 95.616C539.234 91.392 538.146 86.624 538.146 81.312ZM581.442 81.504C581.442 77.856 580.674 74.688 579.138 72C577.666 69.312 575.714 67.264 573.282 65.856C570.85 64.448 568.226 63.744 565.41 63.744C562.594 63.744 559.97 64.448 557.538 65.856C555.106 67.2 553.122 69.216 551.586 71.904C550.114 74.528 549.378 77.664 549.378 81.312C549.378 84.96 550.114 88.16 551.586 90.912C553.122 93.664 555.106 95.776 557.538 97.248C560.034 98.656 562.658 99.36 565.41 99.36C568.226 99.36 570.85 98.656 573.282 97.248C575.714 95.84 577.666 93.792 579.138 91.104C580.674 88.352 581.442 85.152 581.442 81.504ZM612.424 48.096C610.44 48.096 608.776 47.424 607.432 46.08C606.088 44.736 605.416 43.072 605.416 41.088C605.416 39.104 606.088 37.44 607.432 36.096C608.776 34.752 610.44 34.08 612.424 34.08C614.344 34.08 615.976 34.752 617.32 36.096C618.664 37.44 619.336 39.104 619.336 41.088C619.336 43.072 618.664 44.736 617.32 46.08C615.976 47.424 614.344 48.096 612.424 48.096ZM617.8 55.104V108H606.856V55.104H617.8Z" fill="#5D7397"/>
<path d="M215.536 146L210.224 136.88H206.704V146H203.792V123.696H210.992C212.677 123.696 214.096 123.984 215.248 124.56C216.421 125.136 217.296 125.915 217.872 126.896C218.448 127.877 218.736 128.997 218.736 130.256C218.736 131.792 218.288 133.147 217.392 134.32C216.517 135.493 215.195 136.272 213.424 136.656L219.024 146H215.536ZM206.704 134.544H210.992C212.571 134.544 213.755 134.16 214.544 133.392C215.333 132.603 215.728 131.557 215.728 130.256C215.728 128.933 215.333 127.909 214.544 127.184C213.776 126.459 212.592 126.096 210.992 126.096H206.704V134.544ZM239.261 136.56C239.261 137.115 239.229 137.701 239.165 138.32H225.149C225.256 140.048 225.842 141.403 226.909 142.384C227.997 143.344 229.309 143.824 230.845 143.824C232.104 143.824 233.149 143.536 233.981 142.96C234.834 142.363 235.432 141.573 235.773 140.592H238.909C238.44 142.277 237.501 143.653 236.093 144.72C234.685 145.765 232.936 146.288 230.845 146.288C229.181 146.288 227.688 145.915 226.365 145.168C225.064 144.421 224.04 143.365 223.293 142C222.546 140.613 222.173 139.013 222.173 137.2C222.173 135.387 222.536 133.797 223.261 132.432C223.986 131.067 225 130.021 226.301 129.296C227.624 128.549 229.138 128.176 230.845 128.176C232.509 128.176 233.981 128.539 235.261 129.264C236.541 129.989 237.522 130.992 238.205 132.272C238.909 133.531 239.261 134.96 239.261 136.56ZM236.253 135.952C236.253 134.843 236.008 133.893 235.517 133.104C235.026 132.293 234.354 131.685 233.501 131.28C232.669 130.853 231.741 130.64 230.717 130.64C229.245 130.64 227.986 131.109 226.941 132.048C225.917 132.987 225.33 134.288 225.181 135.952H236.253ZM250.241 130.864H246.561V146H243.649V130.864H241.377V128.464H243.649V127.216C243.649 125.253 244.15 123.824 245.153 122.928C246.177 122.011 247.809 121.552 250.049 121.552V123.984C248.769 123.984 247.862 124.24 247.329 124.752C246.817 125.243 246.561 126.064 246.561 127.216V128.464H250.241V130.864ZM261.284 146.288C259.641 146.288 258.148 145.915 256.804 145.168C255.481 144.421 254.436 143.365 253.668 142C252.921 140.613 252.548 139.013 252.548 137.2C252.548 135.408 252.932 133.829 253.7 132.464C254.489 131.077 255.556 130.021 256.9 129.296C258.244 128.549 259.748 128.176 261.412 128.176C263.076 128.176 264.58 128.549 265.924 129.296C267.268 130.021 268.324 131.067 269.092 132.432C269.881 133.797 270.276 135.387 270.276 137.2C270.276 139.013 269.871 140.613 269.06 142C268.271 143.365 267.193 144.421 265.828 145.168C264.463 145.915 262.948 146.288 261.284 146.288ZM261.284 143.728C262.329 143.728 263.311 143.483 264.228 142.992C265.145 142.501 265.881 141.765 266.436 140.784C267.012 139.803 267.3 138.608 267.3 137.2C267.3 135.792 267.023 134.597 266.468 133.616C265.913 132.635 265.188 131.909 264.292 131.44C263.396 130.949 262.425 130.704 261.38 130.704C260.313 130.704 259.332 130.949 258.436 131.44C257.561 131.909 256.857 132.635 256.324 133.616C255.791 134.597 255.524 135.792 255.524 137.2C255.524 138.629 255.78 139.835 256.292 140.816C256.825 141.797 257.529 142.533 258.404 143.024C259.279 143.493 260.239 143.728 261.284 143.728ZM277.017 131.312C277.529 130.309 278.254 129.531 279.193 128.976C280.153 128.421 281.315 128.144 282.681 128.144V131.152H281.913C278.649 131.152 277.017 132.923 277.017 136.464V146H274.105V128.464H277.017V131.312ZM307.13 128.144C308.495 128.144 309.711 128.432 310.778 129.008C311.845 129.563 312.687 130.405 313.306 131.536C313.925 132.667 314.234 134.043 314.234 135.664V146H311.354V136.08C311.354 134.331 310.917 132.997 310.042 132.08C309.189 131.141 308.026 130.672 306.554 130.672C305.039 130.672 303.834 131.163 302.938 132.144C302.042 133.104 301.594 134.501 301.594 136.336V146H298.714V136.08C298.714 134.331 298.277 132.997 297.402 132.08C296.549 131.141 295.386 130.672 293.914 130.672C292.399 130.672 291.194 131.163 290.298 132.144C289.402 133.104 288.954 134.501 288.954 136.336V146H286.042V128.464H288.954V130.992C289.53 130.075 290.298 129.371 291.258 128.88C292.239 128.389 293.317 128.144 294.49 128.144C295.962 128.144 297.263 128.475 298.394 129.136C299.525 129.797 300.367 130.768 300.922 132.048C301.413 130.811 302.223 129.851 303.354 129.168C304.485 128.485 305.743 128.144 307.13 128.144ZM317.923 137.168C317.923 135.376 318.286 133.808 319.011 132.464C319.736 131.099 320.728 130.043 321.987 129.296C323.267 128.549 324.686 128.176 326.243 128.176C327.779 128.176 329.112 128.507 330.243 129.168C331.374 129.829 332.216 130.661 332.771 131.664V128.464H335.715V146H332.771V142.736C332.195 143.76 331.331 144.613 330.179 145.296C329.048 145.957 327.726 146.288 326.211 146.288C324.654 146.288 323.246 145.904 321.987 145.136C320.728 144.368 319.736 143.291 319.011 141.904C318.286 140.517 317.923 138.939 317.923 137.168ZM332.771 137.2C332.771 135.877 332.504 134.725 331.971 133.744C331.438 132.763 330.712 132.016 329.795 131.504C328.899 130.971 327.907 130.704 326.819 130.704C325.731 130.704 324.739 130.96 323.843 131.472C322.947 131.984 322.232 132.731 321.699 133.712C321.166 134.693 320.899 135.845 320.899 137.168C320.899 138.512 321.166 139.685 321.699 140.688C322.232 141.669 322.947 142.427 323.843 142.96C324.739 143.472 325.731 143.728 326.819 143.728C327.907 143.728 328.899 143.472 329.795 142.96C330.712 142.427 331.438 141.669 331.971 140.688C332.504 139.685 332.771 138.523 332.771 137.2ZM346.844 146.288C345.5 146.288 344.295 146.064 343.228 145.616C342.161 145.147 341.319 144.507 340.7 143.696C340.081 142.864 339.74 141.915 339.676 140.848H342.684C342.769 141.723 343.175 142.437 343.9 142.992C344.647 143.547 345.617 143.824 346.812 143.824C347.921 143.824 348.796 143.579 349.436 143.088C350.076 142.597 350.396 141.979 350.396 141.232C350.396 140.464 350.055 139.899 349.372 139.536C348.689 139.152 347.633 138.779 346.204 138.416C344.903 138.075 343.836 137.733 343.004 137.392C342.193 137.029 341.489 136.507 340.892 135.824C340.316 135.12 340.028 134.203 340.028 133.072C340.028 132.176 340.295 131.355 340.828 130.608C341.361 129.861 342.119 129.275 343.1 128.848C344.081 128.4 345.201 128.176 346.46 128.176C348.401 128.176 349.969 128.667 351.164 129.648C352.359 130.629 352.999 131.973 353.084 133.68H350.172C350.108 132.763 349.735 132.027 349.052 131.472C348.391 130.917 347.495 130.64 346.364 130.64C345.319 130.64 344.487 130.864 343.868 131.312C343.249 131.76 342.94 132.347 342.94 133.072C342.94 133.648 343.121 134.128 343.484 134.512C343.868 134.875 344.337 135.173 344.892 135.408C345.468 135.621 346.257 135.867 347.26 136.144C348.519 136.485 349.543 136.827 350.332 137.168C351.121 137.488 351.793 137.979 352.348 138.64C352.924 139.301 353.223 140.165 353.244 141.232C353.244 142.192 352.977 143.056 352.444 143.824C351.911 144.592 351.153 145.2 350.172 145.648C349.212 146.075 348.103 146.288 346.844 146.288ZM381.886 136.56C381.886 137.115 381.854 137.701 381.79 138.32H367.774C367.881 140.048 368.467 141.403 369.534 142.384C370.622 143.344 371.934 143.824 373.47 143.824C374.729 143.824 375.774 143.536 376.606 142.96C377.459 142.363 378.057 141.573 378.398 140.592H381.534C381.065 142.277 380.126 143.653 378.718 144.72C377.31 145.765 375.561 146.288 373.47 146.288C371.806 146.288 370.313 145.915 368.99 145.168C367.689 144.421 366.665 143.365 365.918 142C365.171 140.613 364.798 139.013 364.798 137.2C364.798 135.387 365.161 133.797 365.886 132.432C366.611 131.067 367.625 130.021 368.926 129.296C370.249 128.549 371.763 128.176 373.47 128.176C375.134 128.176 376.606 128.539 377.886 129.264C379.166 129.989 380.147 130.992 380.83 132.272C381.534 133.531 381.886 134.96 381.886 136.56ZM378.878 135.952C378.878 134.843 378.633 133.893 378.142 133.104C377.651 132.293 376.979 131.685 376.126 131.28C375.294 130.853 374.366 130.64 373.342 130.64C371.87 130.64 370.611 131.109 369.566 132.048C368.542 132.987 367.955 134.288 367.806 135.952H378.878ZM406.818 128.144C408.183 128.144 409.399 128.432 410.466 129.008C411.532 129.563 412.375 130.405 412.994 131.536C413.612 132.667 413.922 134.043 413.922 135.664V146H411.042V136.08C411.042 134.331 410.604 132.997 409.73 132.08C408.876 131.141 407.714 130.672 406.242 130.672C404.727 130.672 403.522 131.163 402.626 132.144C401.73 133.104 401.282 134.501 401.282 136.336V146H398.402V136.08C398.402 134.331 397.964 132.997 397.09 132.08C396.236 131.141 395.074 130.672 393.602 130.672C392.087 130.672 390.882 131.163 389.986 132.144C389.09 133.104 388.642 134.501 388.642 136.336V146H385.73V128.464H388.642V130.992C389.218 130.075 389.986 129.371 390.946 128.88C391.927 128.389 393.004 128.144 394.178 128.144C395.65 128.144 396.951 128.475 398.082 129.136C399.212 129.797 400.055 130.768 400.61 132.048C401.1 130.811 401.911 129.851 403.042 129.168C404.172 128.485 405.431 128.144 406.818 128.144ZM434.462 128.176C435.976 128.176 437.299 128.507 438.43 129.168C439.582 129.829 440.435 130.661 440.99 131.664V128.464H443.934V146.384C443.934 147.984 443.592 149.403 442.91 150.64C442.227 151.899 441.246 152.88 439.966 153.584C438.707 154.288 437.235 154.64 435.55 154.64C433.246 154.64 431.326 154.096 429.79 153.008C428.254 151.92 427.347 150.437 427.07 148.56H429.95C430.27 149.627 430.931 150.48 431.934 151.12C432.936 151.781 434.142 152.112 435.55 152.112C437.15 152.112 438.451 151.611 439.454 150.608C440.478 149.605 440.99 148.197 440.99 146.384V142.704C440.414 143.728 439.56 144.581 438.43 145.264C437.299 145.947 435.976 146.288 434.462 146.288C432.904 146.288 431.486 145.904 430.206 145.136C428.947 144.368 427.955 143.291 427.23 141.904C426.504 140.517 426.142 138.939 426.142 137.168C426.142 135.376 426.504 133.808 427.23 132.464C427.955 131.099 428.947 130.043 430.206 129.296C431.486 128.549 432.904 128.176 434.462 128.176ZM440.99 137.2C440.99 135.877 440.723 134.725 440.19 133.744C439.656 132.763 438.931 132.016 438.014 131.504C437.118 130.971 436.126 130.704 435.038 130.704C433.95 130.704 432.958 130.96 432.062 131.472C431.166 131.984 430.451 132.731 429.918 133.712C429.384 134.693 429.118 135.845 429.118 137.168C429.118 138.512 429.384 139.685 429.918 140.688C430.451 141.669 431.166 142.427 432.062 142.96C432.958 143.472 433.95 143.728 435.038 143.728C436.126 143.728 437.118 143.472 438.014 142.96C438.931 142.427 439.656 141.669 440.19 140.688C440.723 139.685 440.99 138.523 440.99 137.2ZM464.855 136.56C464.855 137.115 464.823 137.701 464.759 138.32H450.743C450.849 140.048 451.436 141.403 452.503 142.384C453.591 143.344 454.903 143.824 456.439 143.824C457.697 143.824 458.743 143.536 459.575 142.96C460.428 142.363 461.025 141.573 461.367 140.592H464.503C464.033 142.277 463.095 143.653 461.687 144.72C460.279 145.765 458.529 146.288 456.439 146.288C454.775 146.288 453.281 145.915 451.959 145.168C450.657 144.421 449.633 143.365 448.887 142C448.14 140.613 447.767 139.013 447.767 137.2C447.767 135.387 448.129 133.797 448.855 132.432C449.58 131.067 450.593 130.021 451.895 129.296C453.217 128.549 454.732 128.176 456.439 128.176C458.103 128.176 459.575 128.539 460.855 129.264C462.135 129.989 463.116 130.992 463.799 132.272C464.503 133.531 464.855 134.96 464.855 136.56ZM461.847 135.952C461.847 134.843 461.601 133.893 461.111 133.104C460.62 132.293 459.948 131.685 459.095 131.28C458.263 130.853 457.335 130.64 456.311 130.64C454.839 130.64 453.58 131.109 452.535 132.048C451.511 132.987 450.924 134.288 450.775 135.952H461.847ZM471.61 131.312C472.122 130.309 472.848 129.531 473.786 128.976C474.746 128.421 475.909 128.144 477.274 128.144V131.152H476.506C473.242 131.152 471.61 132.923 471.61 136.464V146H468.698V128.464H471.61V131.312ZM479.548 137.168C479.548 135.376 479.911 133.808 480.636 132.464C481.361 131.099 482.353 130.043 483.612 129.296C484.892 128.549 486.311 128.176 487.868 128.176C489.404 128.176 490.737 128.507 491.868 129.168C492.999 129.829 493.841 130.661 494.396 131.664V128.464H497.34V146H494.396V142.736C493.82 143.76 492.956 144.613 491.804 145.296C490.673 145.957 489.351 146.288 487.836 146.288C486.279 146.288 484.871 145.904 483.612 145.136C482.353 144.368 481.361 143.291 480.636 141.904C479.911 140.517 479.548 138.939 479.548 137.168ZM494.396 137.2C494.396 135.877 494.129 134.725 493.596 133.744C493.063 132.763 492.337 132.016 491.42 131.504C490.524 130.971 489.532 130.704 488.444 130.704C487.356 130.704 486.364 130.96 485.468 131.472C484.572 131.984 483.857 132.731 483.324 133.712C482.791 134.693 482.524 135.845 482.524 137.168C482.524 138.512 482.791 139.685 483.324 140.688C483.857 141.669 484.572 142.427 485.468 142.96C486.364 143.472 487.356 143.728 488.444 143.728C489.532 143.728 490.524 143.472 491.42 142.96C492.337 142.427 493.063 141.669 493.596 140.688C494.129 139.685 494.396 138.523 494.396 137.2ZM505.173 122.32V146H502.261V122.32H505.173Z" fill="#595959"/>
</svg>
