<svg width="57" height="66" viewBox="0 0 57 66" fill="none" xmlns="http://www.w3.org/2000/svg">
<path d="M49.5151 15.1287V4.81525C49.5151 2.70862 47.8065 1 45.7 1H4.81475C2.70812 1 1 2.70862 1 4.81525V15.1287C1 17.2354 2.70825 18.944 4.81475 18.944H45.7C47.8065 18.944 49.5151 17.2355 49.5151 15.1287Z" fill="#C9904D" stroke="#C9904D" stroke-width="0.125"/>
<path d="M20.5142 60.0358C20.5142 62.7779 22.7372 65 25.4784 65H25.8098C28.551 65 30.7737 62.7779 30.7737 60.0358V42.1584H20.5142V60.0358Z" fill="#C9904D" stroke="#C9904D" stroke-width="0.125"/>
<path d="M52.2132 8.34225V14.3413V18.3329C52.2132 19.4604 51.526 20.478 50.4774 20.8995L50.4182 20.923L27.8794 31.7568L27.8816 31.7615C25.4441 32.797 23.8491 35.1832 23.8491 37.841V39.9147H27.6944V37.841C27.6944 36.7107 28.381 35.6949 29.4292 35.2735L29.4892 35.249L52.0272 24.4163L52.0245 24.4115C54.4645 23.376 56.0585 20.9896 56.0585 18.3329V14.3413C56.0575 11.6778 54.4812 9.39 52.2132 8.34225Z" fill="#C9904D" stroke="#C9904D" stroke-width="0.125"/>
</svg>
