<svg width="64" height="64" viewBox="0 0 64 64" fill="none" xmlns="http://www.w3.org/2000/svg">
<path d="M30.4482 0.0370119C13.5459 0.841805 0.207539 14.9182 0.258814 31.8396C0.274427 36.9935 1.51866 41.8581 3.71355 46.1563L0.34361 62.5144C0.161315 63.3992 0.959373 64.174 1.8384 63.9658L17.8674 60.1683C21.9855 62.2196 26.611 63.4044 31.5063 63.4791C48.7821 63.743 63.1871 50.0255 63.7256 32.7562C64.3027 14.2446 49.0245 -0.847678 30.4482 0.0370119ZM49.5742 49.3156C44.88 54.0099 38.6386 56.5951 32.0001 56.5951C28.1129 56.5951 24.3914 55.7229 20.9385 54.003L18.7063 52.891L8.87888 55.2193L10.9475 45.1775L9.84776 43.0239C8.05526 39.5135 7.14639 35.7174 7.14639 31.7414C7.14639 25.1027 9.73158 18.8615 14.4258 14.1671C19.0781 9.51483 25.4212 6.88755 32.0005 6.88755C38.6391 6.8877 44.8801 9.47289 49.5743 14.167C54.2685 18.8612 56.8537 25.1024 56.8539 31.7409C56.8537 38.3204 54.2265 44.6635 49.5742 49.3156Z" fill="#66AE5B"/>
<path d="M47.4047 38.625L41.2564 36.8596C40.448 36.6275 39.5776 36.8568 38.9886 37.4569L37.4851 38.9888C36.8511 39.6347 35.8891 39.8422 35.0501 39.5028C32.1416 38.3257 26.0235 32.8859 24.461 30.165C24.0103 29.3801 24.0848 28.3988 24.6383 27.6826L25.9509 25.9844C26.4652 25.3191 26.5737 24.4255 26.2336 23.6564L23.6469 17.806C23.0273 16.4047 21.2366 15.9968 20.0668 16.9862C18.3508 18.4375 16.3148 20.6429 16.0673 23.0862C15.6309 27.394 17.4784 32.8243 24.4645 39.3446C32.5354 46.8775 38.9986 47.8727 43.2067 46.8533C45.5935 46.2752 47.5009 43.9576 48.7047 42.0599C49.5255 40.7661 48.8774 39.0479 47.4047 38.625Z" fill="#66AE5B"/>
</svg>
